<?xml version="1.0" standalone="no"?>
<!DOCTYPE svg PUBLIC "-//W3C//DTD SVG 20010904//EN"
 "http://www.w3.org/TR/2001/REC-SVG-20010904/DTD/svg10.dtd">
<svg version="1.0" xmlns="http://www.w3.org/2000/svg"
 width="1600.000000pt" height="1600.000000pt" viewBox="0 0 1600.000000 1600.000000"
 preserveAspectRatio="xMidYMid meet">
<metadata>
Created by potrace 1.14, written by Peter Selinger 2001-2017
</metadata>
<g transform="translate(0.000000,1600.000000) scale(0.100000,-0.100000)"
fill="#000000" stroke="none">
<path d="M2940 15041 c0 -5 -14 -8 -30 -7 -17 1 -35 -3 -40 -10 -6 -6 -22 -10
-36 -8 -14 1 -27 -3 -30 -10 -3 -8 -15 -11 -30 -8 -13 2 -24 0 -24 -6 0 -9
-27 -19 -69 -28 -8 -1 -17 -7 -20 -12 -3 -5 -14 -8 -23 -7 -16 3 -96 -43 -126
-72 -7 -7 -19 -13 -25 -13 -7 0 -21 -11 -31 -25 -10 -14 -25 -25 -32 -25 -16
0 -228 -209 -220 -217 3 -3 -7 -17 -22 -32 -24 -22 -43 -54 -43 -71 0 -3 -8
-13 -16 -22 -9 -10 -12 -18 -8 -18 5 0 -1 -9 -13 -20 -12 -12 -22 -27 -22 -35
0 -8 -5 -15 -11 -15 -5 0 -8 -4 -5 -9 3 -5 -1 -14 -9 -21 -7 -6 -11 -18 -8
-25 2 -8 -5 -28 -17 -45 -13 -18 -20 -39 -17 -51 3 -10 0 -25 -7 -32 -7 -7
-12 -22 -11 -34 1 -12 -4 -24 -11 -27 -7 -3 -10 -17 -7 -39 2 -19 0 -38 -6
-42 -8 -4 -11 -1922 -11 -6556 l0 -6549 3228 0 3227 0 0 603 0 602 -2630 0
-2630 1 0 4084 0 4085 4683 1 c2576 0 4686 -4 4688 -8 3 -4 0 -8 -5 -8 -8 0
-11 -430 -11 -1431 0 -991 3 -1428 10 -1424 6 4 17 2 25 -5 7 -6 16 -7 19 -2
7 11 1087 12 1102 1 6 -5 19 -2 31 6 20 14 20 15 19 3294 -1 1803 -4 3283 -8
3287 -5 4 -8 31 -8 60 0 29 -4 55 -9 58 -5 4 -8 17 -6 31 1 16 -3 25 -12 25
-10 0 -12 6 -8 19 3 11 -1 25 -9 34 -8 8 -13 17 -9 20 7 8 -20 67 -31 67 -4 0
-6 7 -2 15 3 8 -2 19 -12 24 -9 6 -13 11 -8 11 5 0 1 9 -10 21 -10 12 -18 23
-16 25 7 11 0 24 -13 24 -8 0 -15 9 -15 19 0 11 -5 23 -10 26 -6 4 -8 10 -6
14 3 4 -4 14 -15 21 -10 8 -19 20 -19 27 0 7 -25 36 -55 64 -30 29 -52 56 -50
59 7 11 -33 43 -44 35 -6 -3 -11 -2 -11 3 0 12 -62 74 -68 67 -3 -2 -16 7 -30
22 -14 15 -32 28 -40 30 -9 1 -19 9 -24 17 -5 9 -15 16 -22 16 -8 0 -20 7 -27
16 -14 17 -58 39 -73 35 -4 -1 -24 7 -43 19 -19 11 -43 20 -54 20 -10 0 -19 5
-19 11 0 6 -9 9 -20 6 -10 -3 -24 1 -30 7 -5 7 -22 12 -37 11 -16 0 -33 4 -40
11 -6 6 -23 9 -37 7 -16 -3 -26 -1 -26 6 0 8 -115 11 -410 11 -225 0 -410 -4
-410 -8 0 -5 -17 -8 -37 -8 -21 1 -48 -5 -60 -12 -12 -8 -27 -11 -33 -7 -6 3
-25 -3 -44 -14 -18 -12 -43 -21 -55 -21 -11 0 -21 -4 -21 -9 0 -5 -12 -8 -26
-8 -15 0 -30 -7 -35 -14 -4 -7 -11 -10 -15 -7 -4 4 -16 2 -28 -4 -11 -7 -24
-11 -28 -10 -5 1 -8 -2 -8 -6 0 -9 -76 -62 -88 -62 -4 0 -20 -14 -36 -30 -16
-17 -31 -29 -33 -26 -3 3 -42 -33 -87 -79 -93 -95 -110 -115 -99 -115 4 0 -1
-6 -11 -13 -9 -7 -22 -22 -29 -33 -7 -12 -25 -41 -41 -65 -16 -24 -28 -45 -25
-47 2 -2 -4 -8 -13 -13 -9 -5 -15 -15 -12 -22 2 -7 -5 -23 -16 -35 -12 -12
-18 -27 -15 -32 4 -6 -1 -13 -10 -16 -9 -4 -14 -12 -11 -19 4 -13 -41 -56 -47
-45 -2 3 -14 -6 -28 -21 -14 -14 -32 -23 -43 -21 -10 2 -22 -2 -26 -9 -9 -13
-160 -14 -170 -1 -3 4 -13 8 -24 10 -10 2 -28 12 -39 22 -11 11 -23 17 -27 15
-10 -6 -46 36 -55 63 -3 12 -13 22 -21 22 -8 0 -13 4 -9 9 3 5 1 12 -5 16 -5
3 -10 16 -10 29 0 13 -9 31 -20 41 -12 10 -18 25 -16 32 3 7 -1 13 -9 13 -8 0
-14 3 -13 8 5 18 -17 59 -43 81 -16 13 -26 27 -24 31 6 9 -186 202 -193 195
-3 -2 -17 9 -32 25 -16 17 -34 30 -40 30 -7 0 -21 9 -31 21 -9 11 -20 20 -23
20 -14 -1 -35 12 -31 19 3 4 -10 11 -28 15 -17 4 -34 8 -37 9 -3 1 -9 4 -15 7
-5 3 -29 11 -52 19 -24 7 -43 18 -43 23 0 5 -9 7 -21 4 -11 -3 -22 0 -25 7 -3
7 -15 12 -27 11 -12 -1 -30 2 -40 7 -10 5 -33 10 -50 10 -18 0 -37 5 -43 10
-11 8 -634 5 -705 -4 -19 -3 -41 -8 -48 -12 -7 -4 -22 -9 -34 -11 -12 -2 -36
-8 -54 -13 -17 -6 -34 -8 -37 -4 -3 3 -6 -2 -6 -11 0 -10 -5 -14 -15 -11 -8 4
-15 1 -15 -6 0 -7 -8 -10 -20 -7 -10 3 -24 -1 -30 -8 -6 -8 -20 -12 -31 -10
-10 2 -19 0 -19 -6 0 -5 -7 -9 -15 -9 -8 0 -23 -9 -32 -20 -10 -11 -23 -20
-30 -20 -7 0 -13 -5 -13 -11 0 -5 -4 -7 -10 -4 -5 3 -10 -1 -10 -10 0 -9 -5
-13 -11 -10 -6 4 -24 -7 -41 -24 -17 -17 -33 -29 -36 -27 -7 8 -192 -185 -192
-201 0 -8 -4 -12 -9 -8 -5 3 -12 -4 -16 -15 -3 -11 -11 -20 -16 -20 -5 0 -9
-5 -9 -11 0 -6 -11 -24 -25 -41 -14 -16 -25 -38 -25 -48 0 -10 -7 -20 -15 -24
-8 -3 -12 -12 -9 -21 3 -8 1 -15 -5 -15 -6 0 -11 -8 -11 -17 0 -9 -7 -24 -16
-34 -8 -9 -17 -25 -18 -34 -1 -9 -22 -30 -47 -46 -24 -16 -49 -33 -55 -38 -7
-5 -14 -7 -18 -4 -3 3 -11 1 -18 -4 -17 -14 -178 -17 -178 -3 0 5 -9 10 -20
10 -10 0 -34 10 -52 23 -43 29 -95 77 -84 77 5 0 2 8 -7 18 -8 9 -17 22 -18
27 -8 36 -12 44 -20 39 -5 -3 -9 6 -9 20 0 14 -5 28 -10 31 -6 4 -8 10 -5 15
3 4 -2 11 -11 14 -8 3 -12 10 -9 16 3 5 1 10 -4 10 -6 0 -11 7 -11 16 0 8 -4
12 -10 9 -5 -3 -10 3 -10 15 0 11 -7 23 -15 27 -9 3 -22 18 -30 34 -18 34
-153 169 -170 169 -7 0 -21 11 -31 25 -10 14 -24 25 -30 25 -6 0 -22 10 -35
23 -13 12 -46 34 -74 47 -27 14 -53 29 -57 35 -4 5 -8 7 -8 2 0 -4 -12 1 -27
10 -15 10 -28 17 -30 15 -6 -5 -58 11 -71 21 -7 5 -15 7 -19 3 -3 -3 -17 1
-30 9 -13 9 -23 13 -23 10 0 -3 -10 -1 -21 6 -12 6 -37 11 -55 11 -19 0 -37 4
-40 9 -7 12 -661 12 -669 -1 -3 -5 -21 -9 -39 -8 -18 1 -39 -3 -47 -8 -8 -4
-23 -10 -33 -11 -11 -2 -25 -8 -31 -13 -7 -5 -15 -7 -18 -3 -4 3 -13 1 -20 -5
-8 -7 -17 -9 -20 -5 -4 3 -7 1 -7 -6 0 -7 -5 -9 -11 -5 -6 3 -14 3 -18 -2 -12
-18 -51 -34 -66 -28 -8 3 -15 1 -15 -5 0 -6 -9 -11 -20 -11 -11 0 -20 -4 -20
-10 0 -5 -7 -10 -15 -10 -8 0 -23 -9 -32 -19 -9 -11 -20 -18 -24 -15 -5 3 -14
-4 -21 -16 -7 -11 -20 -20 -28 -20 -8 0 -28 -13 -43 -30 -16 -16 -31 -29 -35
-27 -8 2 -141 -130 -142 -141 0 -4 -14 -21 -30 -39 -17 -17 -30 -36 -30 -41 0
-5 -7 -15 -15 -22 -17 -14 -60 -100 -57 -112 1 -5 -2 -8 -8 -8 -5 0 -10 -9
-10 -21 0 -13 -4 -18 -12 -13 -8 5 -9 2 -5 -10 4 -10 1 -19 -8 -22 -8 -4 -13
-10 -10 -14 6 -10 -61 -81 -92 -97 -14 -7 -34 -13 -44 -13 -11 0 -19 -4 -19
-10 0 -6 -37 -10 -90 -10 -59 0 -90 4 -90 11 0 6 -6 9 -14 6 -8 -3 -17 1 -20
9 -3 8 -9 13 -13 12 -5 -2 -19 7 -33 20 -13 12 -27 22 -32 22 -4 0 -8 5 -8 10
0 6 -9 19 -20 30 -12 12 -18 25 -15 30 3 5 1 11 -5 15 -5 3 -10 15 -10 26 0
10 -4 19 -9 19 -5 0 -12 11 -15 25 -4 14 -13 25 -22 25 -8 0 -14 6 -13 13 3
20 -13 50 -42 79 -15 14 -25 28 -23 31 2 2 -19 27 -47 56 -28 29 -49 55 -45
58 5 6 -36 43 -49 43 -4 0 -24 18 -46 40 -22 22 -44 40 -50 40 -5 0 -21 11
-35 25 -14 14 -29 23 -34 20 -4 -3 -10 2 -13 10 -6 13 -89 58 -112 60 -5 0
-28 10 -50 21 -22 12 -46 19 -52 17 -7 -3 -13 0 -13 5 0 5 -10 9 -22 8 -13 -1
-25 2 -28 6 -3 4 -17 9 -30 12 -14 3 -38 9 -55 14 -16 5 -36 7 -42 5 -7 -3
-13 0 -13 6 0 8 -125 11 -420 11 -242 0 -420 -4 -420 -9z m613 -1150 c5 -1 5
-6 1 -12 -3 -6 -3 -14 2 -18 9 -6 47 -80 48 -94 1 -4 6 -11 12 -15 13 -8 39
-54 36 -64 -1 -4 10 -19 24 -33 14 -14 22 -30 18 -37 -4 -7 -3 -8 4 -4 7 4 12
1 12 -9 0 -9 3 -14 8 -12 9 6 33 -19 25 -27 -3 -3 8 -18 25 -34 17 -16 28 -32
25 -36 -3 -3 0 -6 8 -6 17 0 49 -35 49 -53 0 -14 35 -47 50 -47 6 0 30 -20 53
-45 24 -25 48 -45 53 -45 5 0 23 -12 39 -27 16 -16 33 -27 36 -26 4 1 15 -7
24 -17 10 -11 24 -20 31 -20 7 0 19 -9 27 -20 8 -11 17 -17 20 -14 8 8 107
-37 107 -49 0 -6 3 -8 6 -4 3 3 21 -3 40 -14 19 -10 43 -19 54 -19 11 0 20 -4
20 -10 0 -5 3 -9 8 -9 23 4 52 -2 48 -10 -3 -4 5 -7 19 -6 13 2 26 -3 28 -10
3 -7 17 -11 31 -10 14 2 26 -1 26 -6 0 -5 15 -9 33 -8 17 2 41 -2 52 -8 11 -5
45 -9 75 -9 30 1 58 -3 62 -8 10 -14 226 -14 232 0 2 6 26 10 58 8 29 -1 55 2
58 6 3 4 23 9 45 11 22 1 45 5 50 8 6 3 21 7 35 9 13 2 27 7 30 10 3 4 12 7
20 7 8 -1 27 5 43 12 15 7 27 11 27 8 0 -2 16 5 36 16 20 11 42 18 49 15 8 -3
16 2 19 10 3 9 10 12 16 9 6 -3 13 0 16 9 3 8 12 12 20 9 7 -3 17 2 20 11 3 9
10 13 15 10 5 -3 21 4 37 14 15 11 32 21 37 22 28 7 42 15 65 39 14 14 32 27
40 29 8 2 24 14 36 28 13 13 27 24 32 24 12 0 222 209 222 221 0 5 14 23 31
40 17 17 28 33 25 36 -3 3 2 13 12 22 23 21 57 74 54 84 -1 4 4 10 12 13 8 3
13 11 10 19 -3 7 2 15 11 19 9 3 13 10 10 16 -9 15 17 70 35 71 8 1 23 1 33 0
9 -1 17 3 17 9 0 7 16 10 45 7 25 -2 56 2 70 9 13 7 32 11 42 9 10 -2 24 -4
31 -4 7 -1 10 -6 7 -12 -8 -12 13 -69 25 -69 4 0 10 -13 13 -29 3 -16 12 -35
20 -42 7 -8 12 -19 10 -26 -2 -6 5 -14 16 -18 13 -4 18 -13 16 -25 -2 -12 3
-21 16 -25 10 -4 19 -14 19 -23 0 -9 21 -36 45 -60 25 -24 45 -48 45 -53 0
-12 149 -159 161 -159 5 0 25 -16 45 -36 19 -20 37 -34 41 -31 3 3 16 -7 30
-24 14 -16 29 -29 34 -29 11 0 70 -40 81 -55 4 -5 8 -6 8 -1 0 5 7 3 15 -4 8
-7 15 -10 15 -6 0 3 18 -5 39 -18 21 -14 41 -23 44 -20 2 3 21 -4 41 -16 20
-11 45 -20 56 -20 11 0 20 -4 20 -9 0 -8 47 -23 80 -25 8 0 21 -6 28 -13 8 -7
18 -11 23 -7 6 3 17 0 25 -7 8 -6 17 -9 20 -7 3 3 22 1 42 -4 20 -5 58 -11 83
-12 25 -1 51 -6 59 -11 20 -13 212 -13 236 0 12 6 47 10 79 9 36 -1 58 3 61
10 3 7 17 11 34 8 16 -2 38 -1 47 3 10 5 24 9 32 11 8 1 17 6 20 11 3 5 13 8
21 8 8 -1 27 5 43 12 15 7 27 10 27 6 0 -4 5 -2 12 5 7 7 20 12 29 12 10 0 42
13 72 30 30 16 57 27 61 23 3 -3 14 1 24 10 10 10 22 14 25 10 4 -3 7 -1 7 5
0 7 9 12 20 12 11 0 20 5 20 11 0 6 6 9 13 6 7 -3 19 4 25 14 7 10 17 19 23
19 7 0 22 11 35 25 12 13 28 26 36 27 7 2 29 20 50 41 20 21 41 37 45 37 11
-1 133 120 133 132 0 5 20 29 45 54 25 24 45 50 45 59 0 8 5 15 11 15 5 0 8 4
5 9 -3 4 3 16 14 26 11 10 20 24 20 32 0 7 5 13 10 13 6 0 10 9 10 20 0 11 3
20 8 20 10 0 42 59 42 79 0 26 21 41 57 41 18 0 33 4 33 10 0 5 25 8 55 7 34
-2 60 2 65 9 6 6 20 10 33 9 12 -1 27 -3 34 -4 7 0 10 -8 7 -16 -4 -8 -1 -15
5 -15 6 0 11 -11 11 -23 0 -13 3 -27 8 -31 4 -4 7 -11 7 -14 1 -14 29 -57 44
-69 9 -6 13 -14 10 -18 -4 -3 4 -17 18 -31 13 -13 21 -29 18 -34 -3 -6 1 -10
9 -10 8 0 18 -10 22 -22 3 -13 25 -41 49 -64 23 -22 41 -48 39 -57 -1 -9 1
-15 5 -14 4 1 35 -26 68 -60 33 -34 63 -60 65 -57 3 3 20 -11 39 -30 18 -19
45 -40 60 -47 16 -6 31 -20 34 -30 4 -10 13 -19 21 -19 18 0 54 -20 75 -42 9
-10 19 -15 23 -11 7 7 97 -35 108 -51 4 -6 8 -8 8 -4 0 4 16 -1 35 -12 20 -11
44 -20 55 -20 11 0 20 -5 20 -10 0 -6 3 -9 8 -8 4 1 16 -2 27 -8 11 -6 30 -9
43 -8 12 0 22 -2 22 -5 0 -10 87 -34 98 -27 4 3 20 -1 33 -8 14 -7 50 -12 80
-12 30 1 63 -3 74 -9 24 -14 202 -13 230 1 11 6 40 10 65 9 25 -1 47 2 50 6 3
4 28 10 55 13 70 9 77 11 103 25 12 6 26 9 31 6 5 -3 17 2 25 11 9 8 16 12 16
8 0 -5 5 -3 12 4 7 7 22 12 35 12 13 0 23 5 23 11 0 6 6 9 14 6 8 -3 16 -1 18
5 2 6 13 12 24 13 26 3 74 26 74 36 0 5 7 6 15 3 8 -4 15 -1 15 6 0 7 6 10 14
7 8 -3 17 1 20 10 4 9 9 13 13 10 5 -6 27 9 93 64 14 12 29 21 33 20 4 -1 20
11 35 27 15 16 37 32 49 36 12 4 25 16 28 27 4 11 9 19 11 16 5 -5 124 114
124 125 0 4 5 8 10 8 6 0 10 6 10 14 0 7 11 22 25 32 14 10 25 27 25 36 0 10
4 18 10 18 5 0 17 16 26 35 9 19 21 32 27 28 6 -4 8 0 4 11 -4 10 -1 19 8 22
7 3 12 11 9 18 -3 7 2 19 10 26 9 7 13 16 10 21 -3 5 -1 9 4 9 4 0 14 16 22
35 8 19 21 35 29 35 97 3 233 0 240 -4 5 -4 12 -2 15 3 4 5 14 8 24 6 9 -2 42
-4 71 -4 43 -1 52 -4 43 -13 -17 -17 -17 -2298 0 -2298 6 0 8 -3 4 -7 -4 -5
-2116 -8 -4692 -8 l-4684 -1 0 1163 0 1163 49 0 c28 0 52 4 55 9 3 4 16 7 28
7 13 -1 31 2 41 6 9 5 17 5 17 0 0 -11 104 -6 108 6 2 7 54 9 105 3z"/>
<path d="M3719 8610 c-10 -7 -13 -1189 -3 -1199 3 -3 802 -6 1775 -6 l1769 0
1 40 c3 254 0 1157 -5 1162 -7 8 -3524 10 -3537 3z"/>
<path d="M11690 6819 c0 -5 -31 -9 -68 -9 -38 0 -72 -3 -76 -7 -4 -5 -33 -9
-63 -9 -30 -1 -58 -6 -62 -11 -3 -5 -21 -9 -39 -7 -20 1 -35 -3 -38 -11 -4 -8
-17 -11 -40 -8 -20 3 -34 0 -34 -6 0 -6 -15 -11 -34 -11 -19 0 -38 -5 -41 -11
-4 -6 -13 -8 -20 -5 -8 3 -18 -1 -24 -8 -6 -7 -22 -12 -36 -11 -14 2 -27 -1
-31 -6 -3 -5 -18 -9 -35 -9 -16 0 -29 -4 -29 -10 0 -5 -13 -10 -29 -10 -17 0
-33 -5 -36 -11 -4 -5 -12 -8 -18 -6 -7 3 -27 -4 -44 -15 -18 -11 -37 -17 -42
-14 -5 3 -11 -1 -15 -9 -3 -8 -15 -15 -27 -15 -12 0 -37 -9 -55 -21 -19 -11
-34 -17 -34 -12 0 4 -4 3 -8 -2 -8 -12 -118 -67 -128 -65 -4 1 -10 -2 -13 -7
-11 -15 -52 -34 -61 -28 -6 4 -10 -1 -10 -9 0 -9 -9 -16 -20 -16 -11 0 -23 -7
-26 -15 -4 -8 -15 -15 -25 -15 -10 0 -19 -4 -19 -10 0 -5 -6 -10 -14 -10 -7 0
-24 -10 -37 -23 -13 -12 -41 -31 -63 -42 -21 -11 -40 -26 -43 -32 -3 -7 -8
-11 -13 -8 -4 2 -16 -5 -28 -15 -12 -11 -24 -20 -28 -20 -4 0 -30 -20 -58 -45
-88 -77 -93 -82 -127 -106 -42 -29 -249 -235 -249 -247 0 -5 -24 -33 -54 -62
-30 -30 -57 -64 -61 -77 -3 -13 -12 -23 -20 -23 -7 0 -17 -10 -20 -21 -4 -12
-20 -35 -36 -52 -16 -16 -27 -32 -25 -34 2 -3 -10 -18 -26 -34 -17 -16 -27
-29 -23 -29 4 0 1 -8 -8 -17 -8 -10 -17 -22 -18 -28 -5 -20 -34 -65 -41 -65
-5 0 -8 -8 -8 -18 0 -9 -9 -23 -20 -30 -12 -7 -18 -17 -14 -23 3 -6 -3 -17
-15 -25 -12 -9 -19 -20 -16 -25 4 -5 1 -9 -4 -9 -6 0 -11 -9 -11 -20 0 -11 -4
-20 -8 -20 -4 0 -14 -16 -21 -35 -7 -19 -17 -35 -23 -35 -5 0 -8 -6 -5 -14 3
-8 -1 -20 -8 -26 -8 -7 -13 -16 -10 -20 8 -12 -20 -71 -30 -63 -4 5 -5 -4 -3
-19 3 -16 2 -28 -2 -28 -9 0 -50 -92 -50 -113 0 -9 -5 -17 -11 -17 -7 0 -9
-10 -7 -24 3 -16 0 -27 -9 -30 -9 -4 -12 -13 -8 -25 3 -12 0 -21 -9 -24 -9 -4
-13 -15 -11 -28 2 -11 -3 -28 -11 -36 -8 -9 -13 -22 -10 -29 3 -7 1 -16 -5
-20 -6 -3 -8 -12 -5 -19 2 -7 -2 -25 -10 -41 -8 -15 -13 -33 -10 -40 3 -7 -1
-32 -7 -56 -7 -23 -12 -59 -12 -78 1 -19 -3 -38 -9 -42 -5 -3 -9 -27 -8 -51 1
-25 -2 -49 -8 -52 -6 -4 -10 -42 -9 -87 1 -44 -3 -83 -8 -87 -13 -8 -12 -434
0 -442 6 -4 9 -43 9 -88 -1 -46 3 -81 9 -81 5 0 8 -23 6 -51 -2 -32 2 -53 9
-56 7 -2 11 -26 10 -63 -1 -37 3 -61 10 -64 7 -3 10 -21 8 -45 -2 -27 1 -41 9
-41 7 0 13 -10 14 -22 3 -39 15 -93 23 -103 4 -5 6 -18 5 -28 -2 -10 3 -21 10
-23 7 -3 12 -14 10 -25 -2 -10 0 -21 6 -24 5 -4 9 -17 9 -31 0 -13 4 -24 9
-24 8 0 18 -24 27 -65 3 -10 10 -23 17 -27 6 -4 9 -8 4 -8 -4 0 0 -15 10 -32
10 -18 18 -38 18 -44 0 -6 8 -26 17 -45 9 -19 21 -46 27 -61 24 -61 37 -84 53
-96 9 -7 15 -19 12 -27 -4 -8 -2 -15 4 -15 5 0 15 -15 22 -32 7 -18 19 -38 26
-44 7 -6 14 -17 16 -25 2 -8 10 -21 19 -29 13 -13 30 -43 33 -60 2 -9 40 -61
64 -85 12 -13 22 -29 22 -35 0 -15 26 -41 34 -33 3 4 6 -2 6 -11 0 -23 28 -60
121 -157 42 -43 74 -81 71 -84 -5 -5 89 -100 100 -100 4 0 44 -36 89 -80 45
-44 86 -79 90 -78 4 2 18 -10 32 -26 13 -16 34 -34 48 -41 13 -7 38 -27 56
-44 18 -17 35 -30 38 -28 4 2 14 -5 23 -15 9 -11 33 -27 52 -36 45 -22 69 -38
94 -59 11 -10 26 -18 33 -18 7 0 13 -5 13 -11 0 -5 4 -8 9 -5 5 3 20 -6 34
-20 18 -17 27 -21 30 -12 3 8 6 5 6 -6 1 -11 4 -17 7 -13 4 3 31 -7 62 -24 30
-16 61 -29 69 -29 15 0 55 -21 64 -34 4 -5 11 -6 17 -2 6 3 12 3 14 -1 5 -13
66 -44 96 -49 14 -3 30 -11 34 -17 4 -7 8 -8 8 -3 0 5 7 2 17 -5 9 -8 24 -13
35 -11 10 2 18 -2 18 -7 0 -6 9 -11 20 -11 11 0 34 -8 53 -19 20 -11 48 -17
69 -16 22 2 38 -2 41 -9 3 -7 16 -12 28 -11 13 1 35 -4 49 -12 14 -7 26 -9 28
-3 2 5 14 3 27 -6 12 -8 34 -13 48 -10 14 2 31 -1 36 -8 6 -7 25 -12 43 -11
17 1 42 -3 54 -10 12 -6 43 -10 68 -9 25 1 46 -2 46 -7 0 -11 713 -13 724 -2
4 4 28 9 53 10 26 2 49 7 52 12 4 4 27 7 53 6 29 -1 49 3 52 10 2 7 15 11 29
8 14 -3 28 0 31 6 4 6 23 11 42 11 19 0 34 4 34 9 0 4 10 7 23 7 12 -1 31 2
42 8 11 6 31 11 45 12 39 2 90 16 96 25 3 5 13 9 23 9 10 0 32 7 50 16 17 9
37 17 44 18 7 1 22 7 33 14 12 6 24 8 28 5 3 -3 6 -1 6 5 0 7 9 12 19 12 11 0
23 5 26 11 4 6 13 8 21 5 8 -3 14 1 14 10 0 8 4 13 9 10 10 -6 61 16 61 27 0
4 9 7 20 7 11 0 20 5 20 11 0 7 10 9 25 7 17 -4 25 -1 25 8 0 7 6 11 14 8 7
-3 16 2 20 11 3 9 11 13 16 10 6 -4 20 3 30 15 10 12 24 19 29 15 6 -3 11 1
11 10 0 9 5 13 11 9 6 -3 24 6 40 22 16 15 29 24 29 18 0 -5 4 -4 8 2 4 6 36
28 72 50 36 21 68 43 72 49 4 5 8 7 8 3 0 -7 22 11 85 70 19 17 39 32 45 32 6
0 26 16 44 35 19 19 39 35 44 35 13 0 122 111 122 124 0 5 3 7 6 3 6 -6 168
158 163 165 -2 3 19 27 46 54 28 26 49 52 47 57 -1 5 10 20 25 33 15 13 28 27
28 32 0 14 42 62 49 55 3 -3 6 3 6 15 0 11 11 29 25 40 14 11 25 27 25 36 0 9
5 16 11 16 5 0 8 4 5 9 -3 5 5 20 18 34 13 14 21 28 19 31 -3 3 2 8 11 12 9 3
13 10 10 16 -3 5 4 17 16 28 12 10 21 20 20 22 -5 10 14 57 21 52 5 -3 9 4 9
15 0 11 5 23 11 26 6 4 8 13 5 20 -2 7 2 16 10 19 9 3 13 10 9 16 -3 5 3 15
15 22 12 8 20 23 20 40 0 16 5 28 10 28 6 0 10 7 10 15 0 8 5 15 11 15 5 0 7
5 3 11 -3 6 -2 14 4 18 7 4 13 17 15 29 2 12 6 25 10 28 4 4 7 18 7 31 0 13 5
23 11 23 6 0 9 6 6 14 -3 8 0 17 8 20 7 2 12 13 11 23 -2 10 3 26 10 37 7 10
10 25 7 32 -3 8 0 14 6 14 7 0 11 6 9 13 -1 6 4 22 11 35 7 13 10 30 7 37 -2
7 1 16 9 19 8 3 12 16 10 32 -1 15 3 33 10 40 7 7 10 24 8 38 -3 16 -1 26 6
26 6 0 10 13 9 29 -1 16 3 35 9 43 7 8 11 35 10 61 -1 26 3 49 9 51 6 2 10 28
9 57 0 30 3 57 8 60 5 4 9 30 10 58 0 29 4 54 9 57 11 7 10 484 -1 484 -5 0
-9 24 -8 53 1 32 -3 51 -9 50 -7 -1 -10 23 -9 70 1 40 -3 78 -8 85 -6 7 -12
27 -13 45 -5 54 -13 98 -21 110 -4 7 -8 21 -9 32 -1 11 -6 31 -11 45 -6 14 -9
32 -8 40 1 8 -2 17 -6 20 -5 3 -10 15 -12 25 -2 11 -7 28 -12 38 -4 10 -5 21
-1 24 3 4 -1 14 -10 24 -9 10 -14 25 -11 33 3 8 -1 17 -8 20 -8 3 -12 14 -10
25 2 12 -3 25 -13 30 -9 5 -16 11 -14 13 6 5 -10 62 -20 75 -6 7 -8 20 -4 28
3 9 -1 18 -10 22 -8 3 -13 12 -10 19 3 8 2 14 -2 14 -10 0 -32 50 -32 72 0 10
-4 18 -10 18 -5 0 -10 9 -10 20 0 11 -5 20 -10 20 -6 0 -18 17 -28 38 -9 20
-21 40 -25 43 -5 3 -8 9 -7 13 2 12 -32 76 -41 76 -5 0 -9 7 -9 15 0 8 -5 15
-11 15 -5 0 -8 4 -5 9 4 5 -5 23 -19 39 -13 16 -22 32 -18 36 3 3 1 6 -6 6 -7
0 -11 5 -9 12 2 6 -10 25 -26 41 -17 16 -30 33 -29 37 1 4 -7 16 -17 25 -11
10 -20 24 -20 31 0 7 -8 19 -18 26 -11 7 -25 24 -32 38 -7 14 -30 42 -52 63
-21 20 -36 42 -33 47 3 6 -1 10 -9 10 -9 0 -16 4 -16 9 0 12 -301 311 -313
311 -5 0 -24 16 -43 35 -18 19 -38 35 -44 35 -7 0 -26 16 -43 35 -17 19 -36
35 -42 35 -11 0 -44 22 -77 53 -11 10 -22 16 -25 13 -3 -2 -16 6 -30 20 -13
13 -28 22 -32 20 -4 -3 -14 4 -21 15 -8 10 -22 19 -32 19 -10 0 -18 5 -18 10
0 6 -7 10 -15 10 -9 0 -18 7 -21 15 -4 8 -15 15 -25 15 -10 0 -19 5 -19 12 0
6 -3 8 -7 5 -3 -4 -13 -1 -22 7 -9 8 -19 15 -24 15 -14 0 -82 35 -88 44 -4 6
-14 7 -22 4 -9 -3 -21 1 -27 9 -7 8 -19 14 -26 14 -8 0 -14 4 -14 10 0 5 -7 7
-15 4 -8 -4 -15 -2 -15 4 0 9 -26 20 -41 18 -4 -1 -15 6 -25 15 -11 9 -27 15
-36 14 -9 -2 -19 3 -22 11 -3 7 -12 11 -21 8 -8 -3 -15 -1 -15 5 0 6 -17 11
-39 11 -22 0 -43 5 -46 11 -4 6 -13 8 -20 5 -7 -2 -21 1 -31 8 -11 7 -27 12
-36 11 -9 -2 -19 3 -21 9 -3 7 -18 12 -34 11 -15 -1 -31 3 -34 8 -4 5 -20 9
-35 9 -16 0 -33 3 -39 7 -5 3 -19 6 -30 6 -11 0 -27 5 -35 10 -8 5 -28 9 -45
10 -16 1 -41 7 -55 12 -14 6 -40 9 -57 7 -18 -2 -35 1 -38 6 -3 6 -37 10 -76
10 -38 0 -69 4 -69 8 0 5 -112 9 -250 9 -137 0 -250 -4 -250 -8z m280 -1190
c0 -5 46 -8 101 -8 56 0 105 -3 108 -8 3 -5 26 -8 51 -8 25 0 50 -5 57 -11 6
-6 23 -10 37 -9 13 2 27 -3 29 -9 3 -8 17 -11 36 -8 19 2 31 0 31 -7 0 -6 14
-11 30 -11 17 0 30 -5 30 -11 0 -6 6 -9 14 -6 7 3 23 -1 34 -8 10 -8 22 -12
25 -8 4 3 9 -1 12 -9 4 -9 14 -14 25 -11 10 3 21 0 24 -6 4 -6 18 -11 32 -11
13 0 24 -4 24 -10 0 -6 3 -9 8 -9 20 3 32 -2 26 -13 -4 -6 -3 -8 3 -5 11 7 63
-14 63 -25 0 -5 8 -8 18 -8 10 0 24 -9 32 -19 7 -11 17 -18 20 -16 4 3 15 -4
25 -15 10 -11 24 -20 32 -20 7 0 13 -5 13 -12 0 -6 3 -9 6 -5 8 8 33 -16 27
-25 -2 -5 3 -8 12 -8 26 0 55 -22 146 -112 48 -48 89 -84 93 -81 7 7 37 -24
34 -35 -2 -6 19 -30 45 -56 27 -25 46 -50 43 -55 -3 -5 1 -12 10 -15 8 -3 19
-19 25 -34 5 -16 21 -35 34 -42 13 -7 22 -17 19 -21 -2 -5 4 -17 16 -29 11
-11 18 -20 15 -20 -3 0 2 -11 11 -25 9 -14 12 -25 8 -25 -5 0 -1 -5 8 -11 10
-5 15 -16 12 -24 -4 -9 0 -15 9 -15 11 0 13 -6 9 -22 -3 -14 -2 -19 6 -14 8 5
12 0 12 -13 0 -12 5 -21 11 -21 6 0 9 -6 6 -14 -3 -8 0 -17 8 -20 8 -3 11 -13
8 -25 -3 -12 -1 -21 6 -21 6 0 11 -9 11 -20 0 -11 5 -20 11 -20 7 0 9 -10 7
-24 -3 -16 0 -27 9 -30 8 -3 12 -10 9 -15 -4 -5 -1 -11 5 -13 5 -2 11 -18 11
-36 1 -18 5 -35 10 -38 4 -3 8 -16 8 -30 0 -13 5 -24 11 -24 6 0 9 -16 8 -41
-2 -22 1 -43 7 -47 5 -4 9 -45 9 -92 -1 -47 3 -91 9 -98 14 -19 15 -233 1
-257 -6 -11 -11 -59 -10 -107 1 -58 -3 -89 -10 -92 -7 -2 -10 -17 -7 -35 2
-19 0 -31 -7 -31 -6 0 -11 -13 -11 -30 0 -16 -4 -39 -9 -52 -20 -50 -25 -63
-26 -73 0 -5 -6 -19 -12 -30 -5 -11 -8 -26 -6 -32 3 -7 1 -13 -4 -13 -12 0
-36 -58 -28 -70 3 -6 -1 -13 -9 -16 -9 -3 -14 -10 -11 -14 3 -5 1 -11 -5 -15
-5 -3 -10 -15 -10 -26 0 -10 -7 -19 -15 -19 -8 0 -12 -6 -9 -14 3 -8 0 -17 -5
-21 -6 -3 -9 -11 -6 -16 4 -5 -1 -12 -9 -15 -9 -3 -13 -10 -10 -16 3 -5 -3
-16 -15 -24 -12 -9 -19 -19 -16 -23 2 -5 -7 -18 -20 -31 -13 -13 -22 -27 -19
-32 4 -5 -3 -16 -15 -24 -12 -8 -21 -21 -21 -29 0 -7 -11 -22 -25 -33 -14 -11
-25 -25 -25 -30 0 -13 -266 -282 -279 -282 -5 0 -22 -13 -37 -29 -15 -17 -31
-28 -36 -25 -4 3 -11 -1 -14 -10 -3 -8 -14 -13 -24 -11 -12 2 -21 -4 -25 -16
-4 -11 -10 -17 -14 -14 -4 2 -17 -5 -29 -15 -12 -11 -28 -20 -37 -20 -8 0 -15
-4 -15 -9 0 -8 -19 -16 -43 -19 -5 0 -18 -11 -30 -24 -12 -13 -29 -22 -38 -20
-9 1 -21 -4 -28 -12 -7 -8 -19 -12 -27 -9 -8 3 -14 0 -14 -6 0 -6 -11 -11 -25
-11 -14 0 -25 -4 -25 -9 0 -6 -9 -8 -19 -6 -11 2 -25 -3 -31 -10 -6 -8 -17
-12 -25 -9 -7 3 -16 1 -20 -5 -3 -6 -17 -11 -30 -11 -13 0 -26 -4 -30 -9 -3
-5 -19 -9 -36 -9 -17 1 -34 -4 -38 -10 -4 -6 -23 -10 -43 -8 -23 2 -39 -1 -41
-8 -3 -8 -23 -12 -56 -10 -29 2 -49 -1 -46 -5 2 -5 -7 -11 -20 -14 -14 -2 -27
-1 -30 2 -2 4 -31 4 -64 1 -34 -3 -68 -2 -75 2 -8 5 -17 4 -21 -1 -3 -5 -15
-8 -28 -5 -37 7 -117 8 -123 1 -4 -3 -15 -2 -25 4 -14 7 -19 6 -19 -3 -1 -9
-4 -8 -13 3 -7 9 -27 15 -52 14 -22 0 -46 4 -54 10 -8 5 -24 10 -35 10 -12 1
-27 4 -34 9 -7 4 -26 8 -42 8 -17 1 -30 5 -30 10 0 4 -13 8 -30 8 -16 0 -30 4
-30 9 0 8 -34 17 -86 24 -12 1 -28 8 -36 15 -8 6 -17 9 -20 6 -4 -3 -20 2 -37
10 -17 9 -33 15 -35 14 -2 -2 -13 6 -25 16 -12 11 -21 16 -21 12 0 -4 -7 0
-16 8 -8 9 -20 14 -25 11 -5 -4 -9 -1 -9 4 0 6 -8 11 -18 11 -9 0 -23 9 -30
20 -7 12 -16 19 -21 16 -4 -3 -15 4 -24 15 -9 10 -24 19 -32 19 -8 0 -15 5
-15 11 0 5 -4 7 -10 4 -5 -3 -19 5 -31 19 -12 14 -26 23 -30 20 -4 -2 -32 20
-60 51 -29 30 -58 55 -63 55 -6 0 -30 20 -53 44 -23 24 -44 41 -47 38 -3 -3
-6 -1 -6 5 0 16 -36 53 -45 45 -4 -4 -6 2 -3 13 3 11 -1 26 -9 33 -7 7 -13 10
-13 7 0 -11 -40 35 -55 64 -8 17 -20 31 -25 31 -5 0 -12 10 -16 22 -4 13 -14
28 -22 34 -9 6 -17 19 -18 29 -1 9 -12 23 -23 31 -12 9 -18 21 -14 30 3 8 -4
23 -17 34 -12 10 -19 23 -16 28 3 6 -1 13 -9 16 -8 3 -14 9 -13 13 4 14 -13
53 -23 53 -5 0 -9 9 -9 19 0 11 -5 23 -11 26 -6 4 -8 13 -5 20 3 8 -2 19 -9
25 -8 7 -13 16 -10 20 3 5 1 11 -5 15 -5 3 -10 17 -10 31 0 13 -4 24 -10 24
-5 0 -10 11 -10 24 0 14 -5 28 -11 31 -6 4 -8 22 -6 41 3 20 0 38 -8 44 -7 6
-11 24 -10 41 1 16 -2 35 -9 42 -6 7 -11 36 -11 65 1 28 -3 52 -8 52 -4 0 -6
4 -2 9 3 5 1 12 -4 15 -6 4 -6 18 -1 36 5 17 5 43 0 59 -4 16 -6 32 -3 34 8 8
10 108 2 113 -4 2 -4 18 1 35 5 16 7 36 4 42 -12 33 -11 79 2 84 9 3 14 20 12
48 0 23 3 48 8 56 4 8 9 28 9 46 1 17 6 37 11 45 6 7 10 30 8 50 -1 23 3 39
11 42 8 3 11 13 8 24 -2 11 0 23 6 26 6 4 11 18 11 32 0 14 4 23 9 19 6 -3 8
3 6 14 -2 11 5 31 16 45 11 14 19 33 17 43 -2 10 2 17 10 15 6 -1 12 7 12 17
0 11 5 23 10 26 6 4 8 11 5 16 -4 5 0 12 9 15 8 3 12 12 9 20 -3 8 0 14 6 14
6 0 11 9 11 21 0 11 5 17 10 14 6 -3 10 3 10 14 0 12 9 26 19 33 10 6 17 18
14 25 -3 7 0 13 6 13 6 0 11 7 11 16 0 9 11 26 24 38 14 11 26 28 28 36 2 8
15 24 29 35 14 11 25 28 23 38 -1 9 1 17 4 17 4 0 26 18 50 40 23 22 40 40 37
40 -2 0 19 21 47 48 28 26 64 59 78 75 15 15 32 27 37 27 5 0 20 11 33 25 12
13 26 23 30 20 3 -2 14 7 24 20 10 14 23 22 28 19 5 -4 16 3 24 15 9 12 19 19
24 16 5 -3 17 5 27 17 10 13 23 23 28 24 25 3 55 17 55 26 0 6 6 8 14 5 8 -3
17 1 20 9 3 9 12 14 18 12 7 -3 19 1 26 9 8 7 17 11 22 8 4 -3 11 2 14 11 4
10 13 13 26 9 11 -3 20 -2 20 3 0 10 31 23 60 26 8 1 25 7 38 14 12 7 22 9 22
5 0 -4 5 -2 12 5 7 7 22 12 35 12 13 0 23 4 23 9 0 9 45 20 98 24 18 1 36 7
40 12 4 6 23 10 42 9 19 0 40 3 45 7 13 10 179 14 192 6 6 -4 18 0 28 7 21 15
65 18 65 5z"/>
<path d="M12780 4950 c0 -5 -5 -10 -11 -10 -13 0 -48 -40 -49 -55 0 -6 -29
-38 -64 -72 -35 -34 -62 -64 -59 -67 3 -3 -20 -30 -52 -61 -31 -31 -55 -59
-52 -61 3 -3 -23 -33 -57 -67 -35 -34 -65 -67 -67 -74 -6 -17 -109 -123 -120
-123 -5 0 -12 -13 -15 -30 -4 -16 -11 -30 -15 -30 -12 0 -73 -64 -77 -81 -2
-6 -30 -38 -63 -70 -32 -32 -59 -63 -59 -69 0 -5 -27 -36 -60 -67 -33 -32 -60
-63 -60 -68 0 -6 -31 -42 -70 -81 -38 -38 -70 -73 -70 -77 0 -10 -26 -37 -36
-37 -4 0 -29 21 -56 46 -27 25 -51 44 -54 41 -2 -2 -41 33 -86 79 -45 46 -83
82 -86 79 -2 -2 -45 36 -95 86 -49 49 -94 89 -99 89 -4 0 -48 40 -96 88 -48
48 -94 88 -102 87 -16 0 -60 -39 -60 -53 0 -4 -36 -44 -80 -87 -44 -44 -78
-86 -75 -92 2 -7 1 -13 -4 -13 -12 0 -161 -150 -161 -162 0 -5 -27 -36 -60
-68 -33 -32 -60 -66 -60 -74 0 -9 -3 -15 -7 -15 -20 3 -34 -2 -28 -10 3 -5
-10 -25 -28 -43 -43 -42 -53 -68 -27 -68 10 0 27 -11 38 -25 11 -13 22 -21 26
-18 3 3 6 2 6 -3 0 -14 41 -57 80 -84 19 -14 72 -61 117 -106 45 -45 84 -80
87 -77 3 3 41 -31 84 -76 44 -45 85 -81 91 -81 6 0 25 -16 43 -36 18 -19 39
-41 46 -47 7 -7 23 -22 34 -34 12 -13 26 -23 32 -23 6 -1 38 -28 70 -60 33
-33 64 -60 69 -60 4 0 44 -36 88 -80 43 -44 83 -80 89 -80 6 0 50 -41 100 -91
49 -50 94 -88 100 -84 5 3 10 -2 10 -11 0 -10 2 -15 5 -12 3 3 29 -19 58 -48
28 -30 59 -54 67 -54 19 1 58 33 62 51 2 8 32 42 67 77 35 35 61 65 58 68 -3
3 24 34 59 68 35 35 64 66 64 70 0 11 37 56 41 51 3 -2 15 13 29 33 13 20 50
63 82 96 32 32 58 62 58 67 0 6 32 41 71 80 39 39 69 72 66 75 -2 3 22 30 54
61 32 31 56 60 54 63 -2 4 21 31 51 61 30 29 52 59 49 66 -2 7 0 13 5 13 12 0
140 130 140 142 0 5 27 35 60 68 33 33 60 64 60 69 0 5 20 29 45 53 24 24 45
51 45 61 0 10 3 17 8 15 4 -2 23 13 43 34 21 21 34 38 31 38 -4 0 4 7 16 16
12 8 22 20 22 26 0 6 32 42 70 80 39 38 70 73 70 78 0 5 20 30 45 56 25 25 45
50 45 55 0 12 81 85 91 82 4 -1 9 7 12 18 3 12 3 19 0 16 -2 -3 -26 17 -52 44
-26 27 -51 49 -56 49 -12 1 -55 35 -55 44 0 9 -74 75 -83 76 -10 0 -63 40 -53
40 3 0 -17 23 -44 50 -27 28 -55 50 -61 50 -6 0 -28 18 -48 39 -21 22 -43 41
-50 43 -7 2 -39 29 -72 62 -32 32 -70 65 -85 72 -31 17 -34 17 -34 4z"/>
</g>
</svg>
